<svg width="25" height="21" viewBox="0 0 25 21" fill="none" xmlns="http://www.w3.org/2000/svg">
<path d="M14.5157 20.5156C15.8763 20.5156 17.1573 20.2552 18.3585 19.7344C19.5596 19.2135 20.6192 18.4941 21.5372 17.5762C22.4551 16.6582 23.1745 15.5986 23.6954 14.3975C24.2162 13.1963 24.4766 11.9154 24.4766 10.5547C24.4766 9.19401 24.2145 7.91309 23.6905 6.71191C23.1664 5.51074 22.4454 4.45117 21.5274 3.5332C20.6094 2.61524 19.5499 1.89584 18.3487 1.375C17.1475 0.854167 15.8666 0.59375 14.5059 0.59375C13.2363 0.59375 12.0352 0.821615 10.9024 1.27734C9.76958 1.73307 8.7556 2.36458 7.86042 3.17187C6.96523 3.97917 6.23606 4.91992 5.67292 5.99414C5.10976 7.06836 4.75983 8.22396 4.62311 9.46093C4.85748 9.41536 5.13255 9.38444 5.44831 9.36816C5.76406 9.35189 6.05214 9.36003 6.31256 9.39257C6.44928 8.38346 6.75201 7.44433 7.22077 6.57519C7.68951 5.70605 8.29173 4.94922 9.02741 4.30468C9.76308 3.66016 10.5964 3.15723 11.5274 2.79589C12.4584 2.43457 13.4512 2.2539 14.5059 2.2539C15.6583 2.2539 16.7358 2.46712 17.7384 2.89355C18.741 3.31999 19.6231 3.91406 20.3848 4.67578C21.1465 5.4375 21.7422 6.31966 22.172 7.32226C22.6016 8.32487 22.8165 9.40235 22.8165 10.5547C22.8165 11.6289 22.6277 12.6413 22.2501 13.5918C21.8725 14.5423 21.3484 15.3822 20.6778 16.1113C20.3588 15.7337 19.903 15.374 19.3106 15.0322C18.7182 14.6904 18.0151 14.4121 17.2013 14.1973C16.3875 13.9824 15.489 13.875 14.5059 13.875C14.0371 13.875 13.5879 13.9027 13.1583 13.958C12.7286 14.0133 12.3217 14.0866 11.9376 14.1777C12.0548 14.6465 12.1134 15.138 12.1134 15.6523C12.1134 16.414 11.9815 17.14 11.7179 17.8301C11.4542 18.5202 11.088 19.1419 10.6192 19.6953C11.2182 19.9557 11.8464 20.1575 12.504 20.3008C13.1615 20.444 13.8321 20.5156 14.5157 20.5156ZM14.5059 12.2149C15.1309 12.2214 15.6957 12.0635 16.2003 11.7412C16.7048 11.4189 17.1068 10.9795 17.4063 10.4229C17.7058 9.86621 17.8556 9.23633 17.8556 8.5332C17.8556 7.87565 17.7058 7.27344 17.4063 6.72656C17.1068 6.17969 16.7048 5.74349 16.2003 5.41797C15.6957 5.09245 15.1309 4.92968 14.5059 4.92968C13.8809 4.92968 13.3145 5.09245 12.8067 5.41797C12.2989 5.74349 11.8952 6.17969 11.5958 6.72656C11.2963 7.27344 11.1498 7.87565 11.1563 8.5332C11.1563 9.22982 11.306 9.85482 11.6056 10.4082C11.905 10.9616 12.307 11.3994 12.8116 11.7217C13.3161 12.044 13.8809 12.2084 14.5059 12.2149Z" fill="black" fill-opacity="0.85"/>
<path d="M5.81452 20.6231C6.48509 20.6231 7.11985 20.4929 7.71881 20.2324C8.31777 19.972 8.84674 19.6139 9.30573 19.1582C9.76471 18.7025 10.1244 18.1751 10.3848 17.5762C10.6452 16.9772 10.7755 16.3392 10.7755 15.6621C10.7755 14.9785 10.6469 14.3372 10.3897 13.7383C10.1325 13.1394 9.7761 12.612 9.32038 12.1563C8.86464 11.7006 8.3373 11.3441 7.73835 11.0869C7.13939 10.8298 6.49811 10.7012 5.81452 10.7012C5.13743 10.7012 4.49941 10.8298 3.90046 11.0869C3.3015 11.3441 2.77415 11.7022 2.31842 12.1611C1.86269 12.6201 1.50462 13.1475 1.2442 13.7432C0.983785 14.3389 0.853577 14.9785 0.853577 15.6621C0.853577 16.3457 0.983785 16.987 1.2442 17.5859C1.50462 18.1849 1.86269 18.7123 2.31842 19.168C2.77415 19.6237 3.3015 19.9802 3.90046 20.2373C4.49941 20.4945 5.13743 20.6231 5.81452 20.6231Z" fill="black" fill-opacity="0.85"/>
<path d="M5.81452 18.7676C5.63222 18.7676 5.48737 18.7123 5.37995 18.6016C5.27252 18.4909 5.21881 18.3477 5.21881 18.1719V16.2578H3.30475C3.12897 16.2578 2.98574 16.2041 2.87506 16.0967C2.76438 15.9893 2.70905 15.8444 2.70905 15.6621C2.70905 15.4798 2.76438 15.335 2.87506 15.2275C2.98574 15.1201 3.12897 15.0664 3.30475 15.0664H5.21881V13.1523C5.21881 12.9766 5.27252 12.8334 5.37995 12.7227C5.48737 12.612 5.63222 12.5566 5.81452 12.5566C5.99681 12.5566 6.14167 12.612 6.24909 12.7227C6.35651 12.8334 6.41022 12.9766 6.41022 13.1523V15.0664H8.32428C8.50006 15.0664 8.64329 15.1201 8.75397 15.2275C8.86465 15.335 8.91999 15.4798 8.91999 15.6621C8.91999 15.8444 8.86465 15.9893 8.75397 16.0967C8.64329 16.2041 8.50006 16.2578 8.32428 16.2578H6.41022V18.1719C6.41022 18.3477 6.35651 18.4909 6.24909 18.6016C6.14167 18.7123 5.99681 18.7676 5.81452 18.7676Z" fill="white"/>
</svg>
