<svg width="21" height="21" viewBox="0 0 21 21" fill="none" xmlns="http://www.w3.org/2000/svg">
<g clip-path="url(#clip0_2_15714)">
<path d="M10.8556 20.834C12.2163 20.834 13.4972 20.5736 14.6984 20.0527C15.8996 19.5319 16.9591 18.8125 17.8771 17.8945C18.7951 16.9766 19.5145 15.917 20.0353 14.7158C20.5561 13.5147 20.8166 12.2338 20.8166 10.873C20.8166 9.51237 20.5561 8.23144 20.0353 7.03027C19.5145 5.8291 18.7951 4.76953 17.8771 3.85156C16.9591 2.93359 15.8979 2.21419 14.6935 1.69336C13.4891 1.17253 12.2065 0.912109 10.8458 0.912109C9.48515 0.912109 8.20423 1.17253 7.00305 1.69336C5.80188 2.21419 4.74394 2.93359 3.82922 3.85156C2.91451 4.76953 2.19674 5.8291 1.6759 7.03027C1.15507 8.23144 0.894653 9.51237 0.894653 10.873C0.894653 12.2338 1.15507 13.5147 1.6759 14.7158C2.19674 15.917 2.91614 16.9766 3.8341 17.8945C4.75208 18.8125 5.81165 19.5319 7.01281 20.0527C8.21399 20.5736 9.49491 20.834 10.8556 20.834ZM10.8556 19.1738C9.70325 19.1738 8.62577 18.959 7.62317 18.5293C6.62057 18.0996 5.74003 17.5056 4.98156 16.7471C4.2231 15.9886 3.63066 15.1081 3.20422 14.1055C2.77779 13.1029 2.56457 12.0254 2.56457 10.873C2.56457 9.7207 2.77779 8.64323 3.20422 7.64063C3.63066 6.63802 4.22148 5.75586 4.97668 4.99414C5.73189 4.23242 6.6108 3.63834 7.6134 3.21191C8.61601 2.78548 9.69348 2.57227 10.8458 2.57227C11.9982 2.57227 13.0757 2.78548 14.0783 3.21191C15.0809 3.63834 15.963 4.23242 16.7248 4.99414C17.4865 5.75586 18.0822 6.63802 18.5119 7.64063C18.9415 8.64323 19.1564 9.7207 19.1564 10.873C19.1564 12.0254 18.9432 13.1029 18.5168 14.1055C18.0903 15.1081 17.4978 15.9886 16.7394 16.7471C15.9809 17.5056 15.0987 18.0996 14.0929 18.5293C13.0871 18.959 12.008 19.1738 10.8556 19.1738ZM17.5353 17.3086L17.506 17.2012C17.3432 16.7194 16.964 16.2474 16.3683 15.7851C15.7726 15.3229 15.0044 14.9421 14.0636 14.6426C13.1228 14.3431 12.0535 14.1933 10.8556 14.1933C9.66419 14.1933 8.59811 14.3431 7.65735 14.6426C6.71659 14.9421 5.94673 15.3229 5.34777 15.7851C4.74882 16.2474 4.36796 16.7161 4.2052 17.1914L4.1759 17.3086C4.76184 17.888 5.4552 18.3828 6.25598 18.793C7.05676 19.2031 7.86568 19.5172 8.68274 19.7353C9.4998 19.9534 10.2241 20.0625 10.8556 20.0625C11.4936 20.0625 12.2196 19.9534 13.0334 19.7353C13.8472 19.5172 14.6528 19.2031 15.4504 18.793C16.2479 18.3828 16.9429 17.888 17.5353 17.3086ZM10.8556 12.5332C11.4806 12.5397 12.047 12.3819 12.5549 12.0596C13.0627 11.7373 13.4647 11.2962 13.7609 10.7363C14.0571 10.1764 14.2052 9.54818 14.2052 8.85156C14.2052 8.19401 14.0554 7.59179 13.756 7.04492C13.4565 6.49805 13.0545 6.06022 12.55 5.73145C12.0454 5.40267 11.4806 5.23828 10.8556 5.23828C10.2306 5.23828 9.66419 5.40267 9.15637 5.73145C8.64856 6.06022 8.24491 6.49805 7.94543 7.04492C7.64595 7.59179 7.49947 8.19401 7.50598 8.85156C7.51249 9.54818 7.66386 10.1732 7.96008 10.7266C8.25631 11.2799 8.6567 11.7177 9.16125 12.04C9.66581 12.3623 10.2306 12.5267 10.8556 12.5332Z" fill="black" fill-opacity="0.85"/>
</g>
<defs>
<clipPath id="clip0_2_15714">
<rect width="19.9219" height="19.9316" fill="white" transform="translate(0.894653 0.912109)"/>
</clipPath>
</defs>
</svg>
