<svg width="25" height="25" viewBox="0 0 25 25" fill="none" xmlns="http://www.w3.org/2000/svg">
<path d="M12.5 24.9976C14.2075 24.9976 15.815 24.671 17.3223 24.0179C18.8297 23.3646 20.1593 22.4624 21.3112 21.3111C22.4632 20.1598 23.366 18.8309 24.0195 17.3245C24.6732 15.818 25 14.2115 25 12.505C25 10.7985 24.6732 9.19195 24.0195 7.68548C23.366 6.179 22.4632 4.85012 21.3112 3.69884C20.1593 2.54755 18.8276 1.6453 17.3161 0.992081C15.8047 0.338867 14.1953 0.0122604 12.4877 0.0122604C10.7802 0.0122604 9.17279 0.338867 7.66543 0.992081C6.15808 1.6453 4.83047 2.54755 3.68259 3.69884C2.53472 4.85012 1.63398 6.179 0.980391 7.68548C0.326797 9.19195 0 10.7985 0 12.505C0 14.2115 0.326797 15.818 0.980391 17.3245C1.63398 18.8309 2.53676 20.1598 3.68872 21.3111C4.84068 22.4624 6.17034 23.3646 7.67768 24.0179C9.18503 24.671 10.7925 24.9976 12.5 24.9976Z" fill="#28CD41"/>
<path d="M9.424 15.4689C8.6887 14.7341 8.03715 13.9625 7.46934 13.1541C6.90153 12.3457 6.47261 11.5415 6.18258 10.7413C5.89255 9.94109 5.78838 9.18173 5.87007 8.4632C5.95177 7.74466 6.2704 7.1037 6.82595 6.5403C6.84229 6.52397 6.86476 6.50151 6.89335 6.47294C6.92195 6.44436 6.95667 6.4219 6.99752 6.40557C7.2753 6.19329 7.54491 6.04223 7.80634 5.95241C8.06778 5.86259 8.31084 5.8483 8.53552 5.90954C8.76019 5.97078 8.96239 6.12388 9.14214 6.36883L10.6985 8.57343C10.9599 8.94086 11.0682 9.25726 11.0233 9.52263C10.9783 9.788 10.8129 10.0717 10.5269 10.3738L10.0367 10.8883C9.95504 10.9781 9.92032 11.072 9.93257 11.17C9.94483 11.2679 9.97138 11.3537 10.0122 11.4272C10.1348 11.6394 10.339 11.9211 10.625 12.2723C10.9109 12.6234 11.2255 12.9704 11.5686 13.3133C11.9281 13.6725 12.2773 13.991 12.6164 14.2687C12.9555 14.5463 13.2353 14.7504 13.4559 14.881C13.5458 14.93 13.6458 14.9565 13.7561 14.9606C13.8664 14.9647 13.9583 14.9341 14.0318 14.8688L14.5221 14.3666C14.808 14.0809 15.0858 13.9155 15.3553 13.8706C15.625 13.8257 15.9477 13.9339 16.3235 14.1952C16.6667 14.432 16.969 14.6443 17.2304 14.8321C17.4918 15.0199 17.7308 15.1893 17.9473 15.3403C18.1637 15.4913 18.37 15.6363 18.5661 15.7751C18.9338 16.0528 19.0972 16.3834 19.0563 16.7671C19.0154 17.1509 18.8521 17.5061 18.5661 17.8328C18.5335 17.8736 18.5008 17.9144 18.4681 17.9552C18.4354 17.996 18.3986 18.0368 18.3578 18.0777C17.8022 18.6329 17.165 18.9493 16.4461 19.0269C15.7271 19.1045 14.9673 18.9983 14.1667 18.7085C13.366 18.4186 12.5612 17.9899 11.7524 17.4224C10.9436 16.855 10.1675 16.2038 9.424 15.4689Z" fill="white"/>
</svg>
